<svg version="1.1" xmlns="http://www.w3.org/2000/svg" viewBox="0 0 250 250"><desc>Created with Snap</desc><defs></defs><g transform="matrix(0.0439,0,0,0.0439,88.6353,139.1918)"><rect x="-2020.9494352976483" y="-1421.056071472168" width="5700.181713358561" height="2194.94411315918" fill="#37393a" style=""></rect><g transform="matrix(19.5129,0,0,19.5129,-1962.5583,-1299.2285)"><rect x="83.251" y="9.5" width="3" height="81" fill="#ffffff" style=""></rect><rect x="12.751" y="52.5" width="65.5" height="33" fill="#ffffff" style=""></rect><path d="M45.251,14.5v33H78.25v-33H45.251z M75.75,45h-28V17h28V45z" fill="#ffffff" style=""></path><desc>Created with Snap</desc><defs></defs></g><g><g transform="matrix(1.024,0,0,-1.024,0,0)"><path d="M371 502L375 316Q375 -20 145 -20Q100 -20 63 1Q27 22 27 66Q27 93 41 110Q55 128 78 128Q102 128 102 117Q102 112 96 97Q90 83 90 68Q90 54 107 37Q124 21 158 21Q192 21 217 35Q242 49 257 76Q272 104 281 133Q291 162 295 206Q301 271 301 353Q301 436 303 490Q175 468 175 380Q175 355 164 341Q154 327 138 327Q108 327 108 361Q108 422 161 463Q215 504 307 524Q314 565 341 590Q368 616 390 616Q412 616 425 603Q439 591 439 570Q439 521 371 502ZM398 582Q376 582 372 537Q408 548 408 566Q408 582 398 582ZM512 54L513 23Q513 -5 497 -5Q473 -5 451 1Q429 8 429 19Q429 31 434 98Q440 166 440 200L440 259Q440 307 450 317Q460 327 485 346Q511 365 522 365Q534 365 537 361Q540 357 540 346Q540 293 520 246Q515 189 515 167Q568 266 589 297Q626 355 656 355Q675 355 691 340Q708 325 708 303Q708 281 707 261Q707 242 706 231Q705 220 705 217Q709 225 739 262Q769 299 779 310Q790 321 802 332Q825 355 843 355Q862 355 878 341Q895 327 895 306Q895 262 885 176Q876 91 876 68Q876 46 882 46Q899 47 929 88Q959 130 988 195Q1018 260 1024 260Q1031 260 1031 252Q1031 224 1002 163Q923 -5 869 -5Q835 -5 815 11Q808 18 808 47Q808 77 813 143Q819 210 819 243Q819 276 808 276Q795 276 751 232Q708 188 705 170Q699 136 699 23Q699 -5 684 -5Q661 -5 640 1Q620 8 620 19Q620 31 626 118Q632 205 632 240Q632 276 620 276Q609 276 565 207Q521 139 516 112Q512 85 512 54ZM1262 579Q1268 580 1294 580Q1321 580 1358 570Q1396 561 1431 539Q1467 518 1488 476Q1510 435 1510 378Q1510 284 1437 226Q1364 168 1244 168Q1244 -27 1175 -27Q1129 -27 1129 12Q1129 24 1141 45Q1153 66 1158 93Q1163 120 1166 180Q1125 193 1125 216Q1125 239 1146 239Q1157 239 1168 236Q1181 503 1186 531Q1129 517 1091 485Q1054 453 1054 409Q1054 384 1043 370Q1033 356 1017 356Q987 356 987 390Q987 457 1046 505Q1106 554 1195 571Q1214 635 1248 635Q1262 635 1262 579ZM1435 350Q1435 440 1383 487Q1332 535 1259 538Q1244 361 1244 205Q1258 203 1266 203Q1350 203 1392 246Q1435 289 1435 350ZM1611 261L1666 267Q1674 267 1680 258Q1686 249 1686 239Q1686 229 1679 171Q1673 113 1673 79Q1673 46 1679 46Q1696 47 1726 88Q1756 130 1785 195Q1815 260 1821 260Q1828 260 1828 252Q1828 224 1799 163Q1720 -5 1666 -5Q1627 -5 1607 11Q1600 18 1600 98Q1600 178 1617 235Q1559 235 1536 272Q1524 291 1524 315Q1524 339 1534 357Q1544 375 1562 375Q1581 375 1596 355Q1612 336 1612 312Q1612 288 1598 264Q1602 261 1611 261ZM2092 217Q2132 230 2147 239Q2163 249 2171 254L2183 261Q2188 264 2191 264Q2199 264 2199 255Q2199 246 2168 223Q2137 201 2091 183Q2084 99 2038 47Q1992 -5 1907 -5Q1845 -5 1812 44Q1779 94 1779 160Q1779 227 1818 286Q1858 345 1920 345Q1948 365 1986 365Q2025 365 2058 324Q2091 283 2092 217ZM2027 166L1991 164Q1945 164 1913 191Q1881 219 1881 252Q1881 285 1892 309Q1849 275 1849 175Q1849 127 1869 83Q1889 40 1932 40Q1975 40 1999 76Q2023 113 2027 166ZM1965 332Q1949 332 1940 317Q1931 303 1931 286Q1931 249 1956 226Q1982 203 2016 203L2028 203Q2026 252 2011 292Q1997 332 1965 332ZM2654 209Q2654 46 2672 46Q2690 46 2720 87Q2751 129 2780 194Q2810 260 2816 260Q2823 260 2823 252Q2823 224 2789 150Q2716 -5 2658 -5Q2636 -5 2618 0Q2600 6 2596 11Q2586 23 2586 99Q2586 279 2598 391Q2540 334 2492 261Q2513 181 2513 122Q2513 64 2490 32Q2468 0 2434 0Q2393 0 2393 79Q2393 133 2436 222Q2416 292 2378 359Q2362 268 2329 173Q2296 78 2261 31Q2226 -15 2178 -15Q2143 -15 2143 12Q2143 34 2158 43Q2173 52 2193 56Q2214 61 2220 67Q2259 108 2293 207Q2328 306 2344 410Q2301 466 2301 493Q2301 521 2315 542Q2330 563 2363 563Q2373 563 2380 537Q2387 512 2387 484Q2448 395 2480 300Q2536 392 2608 470Q2639 659 2680 659Q2694 659 2709 638Q2725 617 2725 595Q2725 527 2666 457Q2654 372 2654 209ZM2446 179Q2422 126 2422 84Q2422 43 2432 43Q2442 43 2447 67Q2452 92 2452 119Q2452 146 2446 179ZM3081 315Q3081 327 3065 335Q3049 344 3028 344Q3007 344 2987 334Q3021 303 3062 303Q3071 303 3076 307Q3081 312 3081 315ZM3128 482L3130 509Q3130 531 3113 550Q3097 570 3069 570Q3021 570 2982 527Q2943 484 2943 435Q2943 387 2968 354Q3011 373 3048 373Q3085 373 3107 360Q3130 348 3130 323Q3130 298 3105 286Q3081 274 3051 274Q2995 274 2949 305Q2925 280 2910 246Q2896 212 2896 183Q2896 124 2934 75Q2972 26 3035 26Q3167 26 3250 200Q3278 257 3285 257Q3293 257 3293 249Q3293 209 3243 128Q3194 48 3136 16Q3079 -15 2995 -15Q2912 -15 2864 34Q2816 83 2816 156Q2816 204 2844 248Q2873 293 2918 325Q2871 364 2871 419Q2871 495 2930 547Q2989 600 3073 600Q3128 600 3165 571Q3203 543 3203 504Q3203 482 3190 468Q3177 454 3157 454Q3128 454 3128 482Z" fill="#ffffff" style=""></path></g></g></g></svg>